<svg viewBox="0 0 33.681 33.681" xmlns="http://www.w3.org/2000/svg">
    <path d="M22.427 6.443c.142-.866.304-2.438 1.269-2.825 1.922-.775 1.908 1.614 1.701 2.742-.204 1.106-1.612 9.73-3.559 8.938-1.502-.613.357-7.75.59-8.855M18.13.337c1.408.259 1.028 3.15 1.036 4.19.01 1.158.207 9.68-1.571 9.445-1.86-.246-1.505-8.713-1.597-10.078.03-1.368.2-3.914 2.132-3.557m-8.386 2.53c1.621-1.388 2.435.964 2.62 2.138.185 1.153 2.323 9.795.135 9.652-1.687-.111-2.87-7.44-3.022-8.6-.161-.897-.545-2.495.267-3.19m-5.83 7.195c-.262-1.224.06-2.625 1.292-2.456 1.058.147 1.465 1.648 1.65 2.712.154.88 2.431 7.264 1.283 7.046-1.08-.205-3.955-6.03-4.226-7.302m17.429 19.22c-1.132.632-2.613 1.014-3.477 1.093-3.418.312-6.865-.542-9.259-2.817-2.352-2.424-2.864-5.68-.774-8.394 1.94-2.52 5.115-3.62 8.423-3.78 1.834-.09 8.042.562 6.254 3.592-1.451 2.458-5.53.05-7.844.838-2.602.886-3.328 4.368-.842 5.798 1.815 1.047 4.385.936 6.069-.192 2.44-1.634 6.928-9.111 9.92-5.61.605.707-6.227 8.217-8.47 9.472" />
    <path fill="#4d4d4d" d="M24.506 18.83c-.484-.431-.709-1.162-1.09-1.711-.615-1.031-1.175-2.107-1.824-3.111-3.686-.054-7.384-.008-11.074-.023-.485.43-.71 1.161-1.091 1.71-1.53 2.64-3.053 5.293-4.486 7.981 1.727 3.239 3.587 6.418 5.422 9.6.617.2 1.36.034 2.027.089 3.066-.016 6.14.031 9.201-.024.99-1.561 1.84-3.231 2.828-4.794 1.185-.094 2.414.07 3.584-.082.136-1.273.02-2.596.059-3.888V19.03c-.361-.413-1.117-.108-1.649-.202h-1.907z"/>
    <path fill="#e2e2e2" d="M7.466 19.092l-2.572 4.585c.81 1.663 1.903 3.176 2.83 4.778 3.845.144 7.696.033 11.543.067 2.123-.014 4.253.028 6.371-.02l1.701-.431c.3-.967.87-1.886.722-2.932.024-2.102.009-4.202-.2-6.296-5.635-.027-11.324-.013-16.98-.007l-3.415.256z"/>
    <path fill="none" d="M27.86 18.83H7.723c-.485.42-.687 1.131-1.064 1.663l-1.786 3.095c.211.768.789 1.437 1.147 2.166l1.547 2.679c.772.203 1.643.035 2.454.09 5.973-.01 11.95.02 17.92-.016.27-.42.05-1.044.121-1.545-.018-2.676.036-5.361-.026-8.031l-.074-.074z"/>
    <path fill="#e1e1e1" d="M8.177 23.187l-3.01 1.092c-.505-.486-.146-1.027.173-1.502l.894-1.548 1.943 1.958z"/>
    <path fill="#c8c8c8" d="M28.062 23.775v2.3l-1.984-2.016z"/>
    <path fill="#c2c2c2" d="M26.078 24.059l1.983 2.017c-.04.79.08 1.62-.057 2.387-.787.137-1.637.02-2.448.06l.522-4.464z"/>
    <path fill="#c7c7c7" d="M25.556 28.522H22.78l-.84-2.025 4.137-2.438z"/>
    <path fill="#cecece" d="M28.062 21.645v2.13l-1.984.284z"/>
    <path fill="#d3d3d3" d="M28.062 19.031c-.037.887.072 1.825-.054 2.68l-1.93 2.348-1.495-5.23c1.125.019 2.26-.036 3.378.027l.074.074z"/>
    <path fill="#c6c6c6" d="M21.318 28.522l-.38-.544 1.002-1.48.84 2.024z"/>
    <path fill="#d5d5d5" d="M20.589 21.738l2.887-2.908h1.107l1.495 5.229z"/>
    <path fill="#d0d0d0" d="M20.589 21.738l1.351 4.76 4.139-2.44-5.49-2.32z"/>
    <path fill="#bfbfbf" d="M20.92 28.522l.018-.544.38.544z"/>
    <path fill="#d9d9d9" d="M20.589 21.738l-.521-2.601 1.114-.307h2.294z"/>
    <path fill="#d4d4d4" d="M20.589 21.738l-6.665 1.538 7.014 4.702-.35-6.24z"/>
    <path fill="#d0d0d0" d="M20.589 21.738l.349 6.24 1.002-1.48-1.351-4.76z"/>
    <path fill="#d9d9d9" d="M20.068 19.137l-6.141 4.138 6.664-1.538-.523-2.6z"/>
    <path fill="#d8d8d8" d="M11.038 28.522H9.393l-1.216-5.335 5.75.088z"/>
    <path fill="#e2e2e2" d="M10.966 18.83l-2.789 4.357-.71-4.095c.264-.502.983-.164 1.446-.263h2.053z"/>
    <path fill="#d8d8d8" d="M9.393 28.523c-.602-.056-1.267.116-1.827-.093l-2.398-4.15 3.009-1.093 1.216 5.336z"/>
    <path fill="#e4e4e4" d="M7.466 19.092l.711 4.095-1.943-1.959z"/>
    <path fill="#dedede" d="M15.048 18.83h-2.943l1.822 4.445 6.14-4.138-1.85-.307H16.97zM8.177 23.187l5.75.088-1.822-4.445H10.965z"/>
    <path fill="#c5c5c5" d="M20.673 28.522h.247l.018-.544-1.337.544z"/>
    <path fill="#d0d0d0" d="M15.19 28.522H19.6l1.337-.544-7.011-4.703z"/>
    <path fill="#d1d1d1" d="M15.048 28.522h.142l-1.263-5.247-2.889 5.247h.308z"/>
    <path fill="#ddd" d="M20.068 19.137l1.114-.307h-1.095z"/>
    <path fill="#e3e3e3" d="M20.068 19.137l-.171-.307h-1.68z"/>
    <path fill="#e2e2e2" d="M20.068 19.137l.019-.307h-.19z"/>
    <path fill="#00b8e3" d="M15.03 18.914c-.903 1.591-1.86 3.162-2.73 4.767h-1.887l3.716-6.44c.326.52.699 1.07.915 1.636l-.014.037z"/>
    <path fill="#33c6e9" d="M15.027 28.611c-.305.499-.561 1.036-.896 1.511l-3.722-6.44h1.892c.867 1.636 1.878 3.215 2.747 4.849l-.005.041-.016.04z"/>
    <path fill="#008aaa" d="M14.129 17.241c-1.55 2.685-3.1 5.37-4.648 8.055-.271-.569-.749-1.097-.889-1.693l3.638-6.3c.576-.168 1.287-.059 1.899-.062z"/>
    <path fill="#00b8e3" d="M14.129 30.122c-.623-.001-1.311.11-1.902-.06-.916-1.589-1.836-3.175-2.75-4.764l.932-1.616 3.72 6.44z"/>
    <path fill="#008aaa" d="M21.603 23.68l-3.719 6.442c-.316-.534-.74-1.079-.903-1.669.902-1.593 1.858-3.165 2.728-4.772h1.894z"/>
    <path fill="#00b8e3" d="M23.444 23.68c-1.183 2.146-2.45 4.257-3.664 6.388-.594.154-1.274.06-1.895.054l4.65-8.055c.297.54.643 1.06.909 1.614zM21.603 23.68h-1.89c-.872-1.603-1.823-3.174-2.726-4.765.152-.594.585-1.137.898-1.673l3.718 6.439z"/>
    <path fill="#33c6e9" d="M22.536 22.066l-.932 1.613-3.72-6.438c.62-.002 1.302-.103 1.895.054l2.757 4.77z"/>
</svg>
