<?xml version="1.0" encoding="UTF-8" standalone="no"?>
<!-- Created with Inkscape (http://www.inkscape.org/) -->

<svg
   width="300"
   height="200"
   viewBox="0 0 300 200"
   version="1.1"
   id="svg1"
   inkscape:version="1.4.2 (ebf0e94, 2025-05-08)"
   sodipodi:docname="thumbnail.svg"
   xml:space="preserve"
   inkscape:export-filename="thumbnail.png"
   inkscape:export-xdpi="96"
   inkscape:export-ydpi="96"
   xmlns:inkscape="http://www.inkscape.org/namespaces/inkscape"
   xmlns:sodipodi="http://sodipodi.sourceforge.net/DTD/sodipodi-0.dtd"
   xmlns:xlink="http://www.w3.org/1999/xlink"
   xmlns="http://www.w3.org/2000/svg"
   xmlns:svg="http://www.w3.org/2000/svg"><sodipodi:namedview
   id="namedview1"
   pagecolor="#ffffff"
   bordercolor="#666666"
   borderopacity="1.0"
   inkscape:showpageshadow="2"
   inkscape:pageopacity="0.0"
   inkscape:pagecheckerboard="0"
   inkscape:deskcolor="#d1d1d1"
   inkscape:document-units="mm"
   inkscape:zoom="4.035"
   inkscape:cx="130.23544"
   inkscape:cy="100"
   inkscape:window-width="1920"
   inkscape:window-height="1129"
   inkscape:window-x="-8"
   inkscape:window-y="-8"
   inkscape:window-maximized="1"
   inkscape:current-layer="layer2"
   showgrid="false" /><defs
   id="defs1"><linearGradient
     id="linearGradient1"
     inkscape:collect="always"><stop
       style="stop-color:#5cdfe5;stop-opacity:1;"
       offset="0"
       id="stop1" /><stop
       style="stop-color:#004bad;stop-opacity:1;"
       offset="1"
       id="stop2" /></linearGradient><linearGradient
     inkscape:collect="always"
     xlink:href="#linearGradient1"
     id="linearGradient2"
     x1="0"
     y1="100"
     x2="300"
     y2="100"
     gradientUnits="userSpaceOnUse" /></defs><g
   inkscape:label="Background"
   inkscape:groupmode="layer"
   id="layer1"
   style="display:inline"
   sodipodi:insensitive="true"><rect
     style="fill:url(#linearGradient2);stroke-width:10.371"
     id="rect1"
     width="300"
     height="200"
     x="0"
     y="0" /></g><g
   inkscape:groupmode="layer"
   id="layer2"
   inkscape:label="Text"><text
     xml:space="preserve"
     style="font-size:29.3333px;line-height:1.25;font-family:sans-serif;text-align:center;text-anchor:middle;fill:#ffffff;fill-opacity:1"
     x="143.27078"
     y="27.819571"
     id="text2"><tspan
       id="tspan2"
       x="143.27078"
       y="27.819571"
       sodipodi:role="line"
       style="font-size:29.3333px;fill:#ffffff;fill-opacity:1">Authenticate with</tspan><tspan
       x="143.27078"
       y="64.486198"
       id="tspan3"
       sodipodi:role="line"
       style="font-size:29.3333px;fill:#ffffff;fill-opacity:1">Keycloak OpenID</tspan></text><path
     d="m 170.86915,93.932467 c 0.53036,-3.23448 1.13543,-9.105843 4.73967,-10.551274 7.1786,-2.894598 7.12631,6.028233 6.35317,10.241271 -0.76193,4.130871 -6.02076,36.341196 -13.29274,33.383106 -5.60991,-2.28953 1.33339,-28.945974 2.20364,-33.073103 M 154.82001,71.126776 c 5.25883,0.967355 3.83954,11.765136 3.86942,15.649499 0.0373,4.325088 0.77314,36.154445 -5.86763,35.276735 -6.94703,-0.9188 -5.62112,-32.542737 -5.96473,-37.640967 0.11206,-5.109431 0.74698,-14.618649 7.96294,-13.285267 m -31.32141,9.449458 c 6.05437,-5.184129 9.09464,3.600506 9.7856,7.985358 0.69098,4.30641 8.67633,36.583968 0.50422,36.049868 -6.30088,-0.41458 -10.71934,-27.788136 -11.28705,-32.120689 -0.60134,-3.350265 -2.03556,-9.318736 0.99723,-11.914537 M 101.72376,107.4493 c -0.97856,-4.5716 0.22409,-9.804275 4.82557,-9.173072 3.95159,0.549037 5.47172,6.155222 6.16269,10.129232 0.57519,3.28677 9.0797,27.13076 4.79196,26.31654 -4.03375,-0.76567 -14.77179,-22.52182 -15.78395,-27.2727 m 65.09669,71.786 c -4.22799,2.3605 -9.75946,3.78725 -12.98648,4.08231 -12.7661,1.16532 -25.64053,-2.02435 -34.58203,-10.52139 -8.78464,-9.05355 -10.69694,-21.2146 -2.89086,-31.35129 7.24582,-9.4121 19.10434,-13.52056 31.4596,-14.11816 6.84993,-0.33615 30.03658,2.09905 23.35846,13.41599 -5.41943,9.18054 -20.65434,0.18674 -29.29705,3.1299 -9.71838,3.30917 -12.42996,16.31432 -3.14484,21.65532 6.77895,3.91051 16.37782,3.49592 22.6675,-0.71711 9.1133,-6.10294 25.87582,-34.02927 37.05084,-20.95315 2.25965,2.64062 -23.25763,30.6902 -31.63514,35.37758"
     id="path1"
     style="stroke-width:3.73496" /><path
     fill="#4d4d4d"
     d="m 178.63414,140.19745 c -1.80772,-1.60977 -2.64809,-4.34002 -4.07111,-6.39052 -2.297,-3.85075 -4.38859,-7.86955 -6.81257,-11.61946 -13.76709,-0.20168 -27.57898,-0.0298 -41.361,-0.0859 -1.81146,1.60603 -2.65182,4.33629 -4.07485,6.38678 -5.71448,9.8603 -11.40284,19.76916 -16.75504,29.80875 6.45027,12.09755 13.39732,23.97099 20.25097,35.85565 2.30448,0.74699 5.07955,0.12699 7.57078,0.33241 11.45139,-0.0598 22.93268,0.11578 34.3654,-0.0896 3.69762,-5.83028 6.87233,-12.06767 10.56248,-17.90542 4.42593,-0.35109 9.0162,0.26145 13.38611,-0.30627 0.50795,-4.75461 0.0747,-9.69597 0.22036,-14.52154 V 140.9445 c -1.34832,-1.54253 -4.17195,-0.40338 -6.15896,-0.75446 h -7.12257 z"
     id="path2"
     style="stroke-width:3.73496" /><path
     fill="#e2e2e2"
     d="m 114.99036,141.17601 -9.60633,17.12481 c 3.02531,6.21125 7.10763,11.86225 10.56994,17.84566 14.36094,0.53784 28.74429,0.12326 43.11269,0.25025 7.92934,-0.0523 15.88481,0.10458 23.79545,-0.0747 l 6.35318,-1.60977 c 1.1205,-3.61171 3.24942,-7.04414 2.69665,-10.95092 0.0896,-7.85089 0.0336,-15.69431 -0.747,-23.51532 -21.04652,-0.10084 -42.29473,-0.0486 -63.41969,-0.0262 z"
     id="path3"
     style="stroke-width:3.73496" /><path
     fill="none"
     d="m 191.16121,140.19745 h -75.21097 c -1.81146,1.56869 -2.56592,4.22425 -3.974,6.21125 l -6.67066,11.55971 c 0.78808,2.86845 2.94689,5.36714 4.28401,8.08994 l 5.778,10.00596 c 2.88339,0.7582 6.13654,0.13073 9.1656,0.33615 22.30894,-0.0373 44.63282,0.0747 66.93055,-0.0598 1.00844,-1.56869 0.18675,-3.8993 0.45193,-5.77052 -0.0673,-9.99476 0.13446,-20.02315 -0.0971,-29.9955 l -0.2764,-0.27638 z"
     id="path4"
     style="stroke-width:3.73496" /><path
     fill="#e1e1e1"
     d="m 117.64591,156.47069 -11.24224,4.07858 c -1.88616,-1.81519 -0.54531,-3.8358 0.64615,-5.60992 l 3.33906,-5.78172 z"
     id="path5"
     style="stroke-width:3.73496" /><path
     fill="#c8c8c8"
     d="m 191.91567,158.66685 v 8.59042 l -7.41017,-7.52969 z"
     id="path6"
     style="stroke-width:3.73496" /><path
     fill="#c2c2c2"
     d="m 184.5055,159.72758 7.40644,7.53343 c -0.14941,2.95062 0.2988,6.05063 -0.2129,8.91536 -2.93942,0.51168 -6.11413,0.0747 -9.14319,0.22409 z"
     id="path7"
     style="stroke-width:3.73496" /><path
     fill="#c7c7c7"
     d="m 182.55585,176.39673 h -10.36826 l -3.13736,-7.5633 15.45154,-9.10585 z"
     id="path8"
     style="stroke-width:3.73496" /><path
     fill="#cecece"
     d="m 191.91567,150.71138 v 7.95547 l -7.41017,1.06073 z"
     id="path9"
     style="stroke-width:3.73496" /><path
     fill="#d3d3d3"
     d="m 191.91567,140.94818 c -0.1382,3.31292 0.26892,6.81631 -0.20168,10.00971 l -7.20849,8.76969 -5.58377,-19.53386 c 4.20184,0.071 8.44102,-0.13446 12.61671,0.10084 l 0.27638,0.27639 z"
     id="path10"
     style="stroke-width:3.73496" /><path
     fill="#c6c6c6"
     d="m 166.72708,176.39673 -1.41929,-2.03183 3.74244,-5.52774 3.13736,7.55957 z"
     id="path11"
     style="stroke-width:3.73496" /><path
     fill="#d5d5d5"
     d="m 164.00428,151.05873 10.78285,-10.86128 h 4.1346 l 5.58377,19.53013 z"
     id="path12"
     style="stroke-width:3.73496" /><path
     fill="#d0d0d0"
     d="m 164.00428,151.05873 5.04595,17.77843 15.45901,-9.11331 z"
     id="path13"
     style="stroke-width:3.73496" /><path
     fill="#bfbfbf"
     d="m 165.24055,176.39673 0.0673,-2.03183 1.41929,2.03183 z"
     id="path14"
     style="stroke-width:3.73496" /><path
     fill="#d9d9d9"
     d="m 164.00428,151.05873 -1.94591,-9.71464 4.16075,-1.14664 h 8.56801 z"
     id="path15"
     style="stroke-width:3.73496" /><path
     fill="#d4d4d4"
     d="m 164.00428,151.05873 -24.89353,5.74438 26.19704,17.56179 -1.30724,-23.30617 z"
     id="path16"
     style="stroke-width:3.73496" /><path
     fill="#d0d0d0"
     d="m 164.00428,151.05873 1.30351,23.30617 3.74244,-5.52774 z"
     id="path17"
     style="stroke-width:3.73496" /><path
     fill="#d9d9d9"
     d="m 162.05837,141.34409 -22.93641,15.45528 24.8898,-5.74438 z"
     id="path18"
     style="stroke-width:3.73496" /><path
     fill="#d8d8d8"
     d="m 128.33164,176.39673 h -6.14401 l -4.54172,-19.92604 21.47605,0.32868 z"
     id="path19"
     style="stroke-width:3.73496" /><path
     fill="#e2e2e2"
     d="m 128.06273,140.19745 -10.41682,16.27324 -2.65182,-15.29468 c 0.98603,-1.87495 3.67147,-0.61253 5.40076,-0.98229 h 7.66788 z"
     id="path20"
     style="stroke-width:3.73496" /><path
     fill="#d8d8d8"
     d="m 122.18763,176.40046 c -2.24844,-0.20915 -4.73221,0.43325 -6.82379,-0.34735 l -8.95644,-15.50011 11.23851,-4.08231 z"
     id="path21"
     style="stroke-width:3.73496" /><path
     fill="#e4e4e4"
     d="m 114.99036,141.17601 2.65555,15.29468 -7.25703,-7.31679 z"
     id="path22"
     style="stroke-width:3.73496" /><path
     fill="#dedede"
     d="m 143.30885,140.19745 h -10.992 l 6.80511,16.60192 22.93267,-15.45528 -6.90967,-1.14664 h -4.65751 z m -25.66294,16.27324 21.47605,0.32868 -6.80511,-16.60192 h -4.25786 z"
     id="path23"
     style="stroke-width:3.73496" /><path
     fill="#c5c5c5"
     d="m 164.31802,176.39673 h 0.92253 l 0.0673,-2.03183 -4.99365,2.03183 z"
     id="path24"
     style="stroke-width:3.73496" /><path
     fill="#d0d0d0"
     d="m 143.83922,176.39673 h 16.47119 l 4.99364,-2.03183 -26.18583,-17.56553 z"
     id="path25"
     style="stroke-width:3.73496" /><path
     fill="#d1d1d1"
     d="m 143.30885,176.39673 h 0.53037 l -4.71726,-19.59736 -10.79032,19.59736 h 1.15037 z"
     id="path26"
     style="stroke-width:3.73496" /><path
     fill="#dddddd"
     d="m 162.05837,141.34409 4.16075,-1.14664 h -4.08979 z"
     id="path27"
     style="stroke-width:3.73496" /><path
     fill="#e3e3e3"
     d="m 162.05837,141.34409 -0.63868,-1.14664 h -6.27473 z"
     id="path28"
     style="stroke-width:3.73496" /><path
     fill="#e2e2e2"
     d="m 162.05837,141.34409 0.071,-1.14664 h -0.70965 z"
     id="path29"
     style="stroke-width:3.73496" /><path
     fill="#00b8e3"
     d="m 143.24162,140.51119 c -3.37267,5.94232 -6.94703,11.80996 -10.19645,17.80457 h -7.04788 l 13.87913,-24.05317 c 1.21759,1.94219 2.61074,3.99642 3.41749,6.1104 z"
     id="path30"
     style="stroke-width:3.73496" /><path
     fill="#33c6e9"
     d="m 143.23042,176.72914 c -1.13917,1.86375 -2.09531,3.86942 -3.34654,5.64352 l -13.90152,-24.05317 h 7.06654 c 3.23821,6.11041 7.01427,12.00791 10.25995,18.11085 l -0.0187,0.15314 -0.0598,0.14939 z"
     id="path31"
     style="stroke-width:3.73496" /><path
     fill="#008aaa"
     d="m 139.87642,134.26259 c -5.7892,10.02839 -11.57839,20.05677 -17.36011,30.08514 -1.01218,-2.12519 -2.79749,-4.09725 -3.32039,-6.32329 l 13.5878,-23.53028 c 2.15134,-0.62747 4.8069,-0.22036 7.0927,-0.23157 z"
     id="path32"
     style="stroke-width:3.73496" /><path
     fill="#00b8e3"
     d="m 139.87642,182.37266 c -2.32688,-0.003 -4.89654,0.41085 -7.1039,-0.22409 -3.42123,-5.93486 -6.8574,-11.85851 -10.27115,-17.79337 l 3.48099,-6.03571 z"
     id="path33"
     style="stroke-width:3.73496" /><path
     fill="#008aaa"
     d="m 167.79154,158.31203 -13.89033,24.06063 c -1.18025,-1.99446 -2.76388,-4.03002 -3.37268,-6.23364 3.36895,-5.9498 6.93956,-11.82117 10.18898,-17.82326 h 7.07403 z"
     id="path34"
     style="stroke-width:3.73496" /><path
     fill="#00b8e3"
     d="m 174.66761,158.31203 c -4.41846,8.01524 -9.15066,15.89974 -13.68491,23.85895 -2.21857,0.57518 -4.75834,0.2241 -7.07776,0.20168 l 17.36759,-30.08513 c 1.10928,2.01689 2.40157,3.95907 3.39508,6.02823 z m -6.87607,0 h -7.05908 c -3.25689,-5.98715 -6.80884,-11.85477 -10.18152,-17.79711 0.56772,-2.21856 2.18496,-4.24664 3.354,-6.24858 l 13.8866,24.04942 z"
     id="path35"
     style="stroke-width:3.73496" /><path
     fill="#33c6e9"
     d="m 171.27626,152.2838 -3.48099,6.0245 -13.89406,-24.04571 c 2.31567,-0.008 4.86292,-0.38469 7.07776,0.2017 l 10.29729,17.81578 z"
     id="path36"
     style="stroke-width:3.73496" /></g>
</svg>
