<?xml version="1.0" encoding="UTF-8" standalone="no"?>
<svg xmlns="http://www.w3.org/2000/svg" version="1.1" viewBox="0 0 25 25" width="25" height="25">
  <path
    style="stroke-width:0.740744"
     d="m 16.638916,4.7981282 c 0.105186,-0.6414846 0.225187,-1.8059347 0.940005,-2.0926028 1.423711,-0.5740769 1.41334,1.1955614 1.260006,2.031121 -0.151112,0.8192633 -1.19408,7.2074426 -2.636309,6.6207736 -1.112598,-0.454077 0.264446,-5.7407693 0.437039,-6.5592918 M 13.455938,0.27514317 c 1.042968,0.19185279 0.761485,2.33334473 0.767411,3.10371883 0.0074,0.857782 0.153334,7.170405 -1.163709,6.996331 C 11.681855,10.192969 11.944819,3.9210869 11.876671,2.9099709 11.898893,1.8966326 12.02482,0.01069743 13.455938,0.27514317 M 7.2440556,2.1492264 C 8.4448022,1.1210732 9.0477681,2.863304 9.1848058,3.7329378 9.3218435,4.5870161 10.905555,10.988529 9.2848063,10.882602 8.0351706,10.80038 7.15887,5.3714644 7.0462768,4.5122009 6.927017,3.8477532 6.6425712,2.6640437 7.2440556,2.1492264 M 2.925516,7.4788821 C 2.7314409,6.572211 2.9699606,5.5344281 3.8825577,5.6596139 4.6662652,5.7685033 4.9677482,6.8803606 5.1047859,7.6685126 5.2188605,8.3203677 6.9055354,13.04928 6.0551609,12.887797 5.255157,12.735945 3.1255169,8.4211089 2.9247752,7.4788821 M 15.835209,21.715989 c -0.838523,0.46815 -1.935565,0.751114 -2.575568,0.809633 -2.531865,0.231112 -5.0852105,-0.401483 -6.8585525,-2.086677 -1.7422307,-1.795564 -2.1214918,-4.207428 -0.5733361,-6.217808 1.437044,-1.866676 3.7889074,-2.681494 6.2392896,-2.800013 1.358525,-0.06667 5.957066,0.416298 4.632615,2.660753 -1.07482,1.82075 -4.096316,0.03704 -5.810398,0.620744 -1.9274172,0.6563 -2.4651977,3.235571 -0.623707,4.294836 1.344451,0.775559 3.248164,0.693337 4.495577,-0.142223 1.807417,-1.210376 5.131877,-6.748922 7.348184,-4.155576 0.448151,0.523706 -4.612615,6.086696 -6.274104,7.016331"
      />
  <path
     fill="#4d4d4d"
     style="stroke-width:0.740744"
     d="m 18.178924,13.973729 c -0.35852,-0.319261 -0.525188,-0.860745 -0.807412,-1.267414 -0.455557,-0.763707 -0.870374,-1.560748 -1.351117,-2.304456 -2.730384,-0.04 -5.469657,-0.0059 -8.2030033,-0.01704 -0.359261,0.31852 -0.5259285,0.860004 -0.8081521,1.266673 -1.1333388,1.955565 -2.2614925,3.92076 -3.3229792,5.911881 1.2792655,2.399271 2.65705,4.754097 4.0163159,7.111146 0.4570393,0.148149 1.0074124,0.02519 1.5014889,0.06593 2.2711218,-0.01185 4.5481708,0.02296 6.8155888,-0.01778 0.733337,-1.156302 1.36297,-2.393345 2.094825,-3.551128 0.877782,-0.06963 1.788157,0.05185 2.654828,-0.06074 0.100741,-0.942968 0.01481,-1.922973 0.0437,-2.880015 v -4.108909 c -0.267409,-0.305927 -0.827412,-0.08 -1.221488,-0.14963 H 18.17892 Z"
      />
  <path
     fill="#e2e2e2"
     d="m 5.5566399,14.167804 -1.9051945,3.396313 c 0.600003,1.231857 1.4096366,2.352604 2.0963066,3.539276 2.848162,0.106667 5.700769,0.02445 8.550412,0.04963 1.5726,-0.01037 3.150386,0.02074 4.719282,-0.01482 l 1.260007,-0.319261 c 0.222223,-0.7163 0.644447,-1.397044 0.534817,-2.171862 0.01778,-1.557045 0.0067,-3.112608 -0.148149,-4.663727 -4.174094,-0.02 -8.388189,-0.0096 -12.5778391,-0.0052 z"
      />
  <path
     fill="none"
     d="M 20.66338,13.973729 H 5.7470112 c -0.359261,0.311112 -0.5088913,0.837781 -0.788152,1.231857 L 3.6358898,17.49819 c 0.1562971,0.568892 0.5844473,1.06445 0.8496338,1.604453 l 1.1459315,1.984454 c 0.5718547,0.150371 1.217043,0.02593 1.8177867,0.06667 4.4244662,-0.0074 8.8518952,0.01482 13.2741392,-0.01185 0.200001,-0.311113 0.03704,-0.773337 0.08963,-1.14445 -0.01333,-1.982232 0.02667,-3.971131 -0.01926,-5.948918 l -0.05482,-0.05481 z"
     style="stroke-width:0.740744" />
  <path
     fill="#e1e1e1"
     d="M 6.0833092,17.201152 3.8536686,18.010045 C 3.4795927,17.650043 3.74552,17.2493 3.9818174,16.897447 l 0.6622255,-1.146673 z"
     style="stroke-width:0.740744" />
  <path
     fill="#c8c8c8"
     d="m 20.813011,17.636709 v 1.703713 l -1.469637,-1.493341 z"
     style="stroke-width:0.740744" />
  <path
     fill="#c2c2c2"
     d="m 19.343374,17.847081 1.468896,1.494081 c -0.02963,0.585188 0.05926,1.200006 -0.04222,1.768157 -0.582966,0.101482 -1.212599,0.01482 -1.813343,0.04444 z"
     style="stroke-width:0.740744" />
  <path
     fill="#c7c7c7"
     d="m 18.956705,21.153023 h -2.056306 l -0.622225,-1.500007 3.064459,-1.805935 z"
     style="stroke-width:0.740744" />
  <path
     fill="#cecece"
     d="m 20.813011,16.058924 v 1.577785 l -1.469637,0.210372 z"
     style="stroke-width:0.740744" />
  <path
     fill="#d3d3d3"
     d="m 20.813011,14.122618 c -0.02741,0.65704 0.05333,1.351859 -0.04,1.985195 l -1.429637,1.739268 -1.107413,-3.874093 c 0.833338,0.01407 1.674082,-0.02667 2.502235,0.02 l 0.05482,0.05481 z"
     style="stroke-width:0.740744" />
  <path
     fill="#c6c6c6"
     d="m 15.817431,21.153023 -0.281483,-0.402965 0.742226,-1.096302 0.622225,1.499267 z"
     style="stroke-width:0.740744" />
  <path
     fill="#d5d5d5"
     d="m 15.277428,16.127813 2.138529,-2.154084 h 0.820004 l 1.107413,3.873352 z"
     style="stroke-width:0.740744" />
  <path
     fill="#d0d0d0"
     d="m 15.277428,16.127813 1.000746,3.525943 3.065941,-1.807416 z"
     style="stroke-width:0.740744" />
  <path
     fill="#bfbfbf"
     d="m 15.522615,21.153023 0.01333,-0.402965 0.281483,0.402965 z"
     style="stroke-width:0.740744" />
  <path
     fill="#d9d9d9"
     d="M 15.277428,16.127813 14.8915,14.201137 15.71669,13.973729 h 1.699267 z"
     style="stroke-width:0.740744" />
  <path
     fill="#d4d4d4"
     d="m 15.277428,16.127813 -4.937061,1.139265 5.195581,3.48298 -0.259261,-4.622245 z"
     style="stroke-width:0.740744" />
  <path
     fill="#d0d0d0"
     d="m 15.277428,16.127813 0.25852,4.622245 0.742226,-1.096302 z"
     style="stroke-width:0.740744" />
  <path
     fill="#d9d9d9"
     d="m 14.8915,14.201137 -4.548911,3.0652 4.936321,-1.139265 z"
     style="stroke-width:0.740744" />
  <path
     fill="#d8d8d8"
     d="M 8.2025788,21.153023 H 6.9840543 l -0.9007451,-3.951871 4.2592798,0.06518 z"
     style="stroke-width:0.740744" />
  <path
     fill="#e2e2e2"
     d="M 8.1492452,13.973729 6.0833092,17.201152 5.5573807,14.167804 C 5.7529372,13.79595 6.2855324,14.046322 6.628497,13.972988 h 1.5207482 z"
     style="stroke-width:0.740744" />
  <path
     fill="#d8d8d8"
     d="M 6.9840543,21.153764 C 6.5381262,21.112282 6.0455312,21.23969 5.6307144,21.084874 L 3.8544094,18.010785 6.0833092,17.201152 Z"
     style="stroke-width:0.740744" />
  <path
     fill="#e4e4e4"
     d="M 5.5566399,14.167804 6.0833092,17.201152 4.6440429,15.750034 Z"
     style="stroke-width:0.740744" />
  <path
     fill="#dedede"
     d="M 11.172964,13.973729 H 8.992953 l 1.349636,3.292608 4.548171,-3.0652 -1.370377,-0.227408 h -0.923709 z m -5.0896548,3.227423 4.2592798,0.06518 -1.349636,-3.292608 H 8.1485044 Z"
     style="stroke-width:0.740744" />
  <path
     fill="#c5c5c5"
     d="m 15.339651,21.153023 h 0.182964 l 0.01333,-0.402965 -0.990375,0.402965 z"
     style="stroke-width:0.740744" />
  <path
     fill="#d0d0d0"
     d="m 11.278149,21.153023 h 3.266683 l 0.990375,-0.402965 -5.193359,-3.483721 z"
     style="stroke-width:0.740744" />
  <path
     fill="#d1d1d1"
     d="m 11.172964,21.153023 h 0.105185 l -0.93556,-3.886686 -2.1400102,3.886686 H 8.430728 Z"
     style="stroke-width:0.740744" />
  <path
     fill="#dddddd"
     d="m 14.8915,14.201137 0.82519,-0.227408 h -0.811116 z"
     style="stroke-width:0.740744" />
  <path
     fill="#e3e3e3"
     d="m 14.8915,14.201137 -0.126667,-0.227408 h -1.24445 z"
     style="stroke-width:0.740744" />
  <path
     fill="#e2e2e2"
     d="m 14.8915,14.201137 0.01407,-0.227408 h -0.140741 z"
     style="stroke-width:0.740744" />
  <path
     fill="#00b8e3"
     d="M 11.15963,14.035951 C 10.490738,15.214475 9.7818458,16.378185 9.1373982,17.56708 H 7.7396136 L 10.49222,12.796686 c 0.241482,0.385187 0.51778,0.792596 0.677781,1.211858 z"
     style="stroke-width:0.740744" />
  <path
     fill="#33c6e9"
     d="m 11.157408,21.218949 c -0.225927,0.369632 -0.415558,0.767411 -0.663707,1.119265 L 7.7366506,17.56782 h 1.4014883 c 0.6422254,1.211858 1.3911181,2.381493 2.0348251,3.59187 l -0.0037,0.03037 -0.01185,0.02963 z"
     style="stroke-width:0.740744" />
  <path
     fill="#008aaa"
     d="M 10.49222,12.796686 C 9.3440658,14.785584 8.1959121,16.774483 7.0492398,18.763382 6.8484981,18.341898 6.4944223,17.950785 6.3907181,17.509301 l 2.694828,-4.666689 c 0.4266687,-0.124445 0.9533379,-0.0437 1.4066739,-0.04593 z"
     style="stroke-width:0.740744" />
  <path
     fill="#00b8e3"
     d="M 10.49222,22.338214 C 10.030736,22.337473 9.5211037,22.419696 9.0833238,22.293769 8.404802,21.116726 7.7233172,19.941906 7.0462768,18.764863 L 7.7366506,17.56782 Z"
     style="stroke-width:0.740744" />
  <path
     fill="#008aaa"
     d="m 16.028543,17.566339 -2.754828,4.771875 c -0.234076,-0.395558 -0.548151,-0.799263 -0.668892,-1.236302 0.668151,-1.180006 1.376303,-2.344456 2.02075,-3.534832 h 1.40297 z"
     style="stroke-width:0.740744" />
  <path
     fill="#00b8e3"
     d="m 17.392253,17.566339 c -0.8763,1.589637 -1.814823,3.153349 -2.714087,4.731875 -0.440002,0.114074 -0.943708,0.04444 -1.403711,0.04 l 3.444462,-5.966696 c 0.220001,0.400002 0.476298,0.785189 0.673336,1.195562 z m -1.36371,0 h -1.400007 c -0.645929,-1.187413 -1.350377,-2.351123 -2.019269,-3.529647 0.112593,-0.440002 0.433335,-0.842226 0.665188,-1.239265 l 2.754088,4.769653 z"
     style="stroke-width:0.740744" />
  <path
     fill="#33c6e9"
     d="m 16.719657,16.370777 -0.690373,1.194821 -2.755569,-4.768912 c 0.459261,-0.0015 0.964449,-0.0763 1.40371,0.04 l 2.042232,3.533351 z"
     style="stroke-width:0.740744" />
  <path
     d="m 16.638916,4.7981282 c 0.105186,-0.6414846 0.225187,-1.8059347 0.940005,-2.0926028 1.423711,-0.5740769 1.41334,1.1955614 1.260006,2.031121 -0.151112,0.8192633 -1.19408,7.2074426 -2.636309,6.6207736 -1.112598,-0.454077 0.264446,-5.7407693 0.437039,-6.5592918 M 13.455938,0.27514317 c 1.042968,0.19185279 0.761485,2.33334473 0.767411,3.10371883 0.0074,0.857782 0.153334,7.170405 -1.163709,6.996331 C 11.681855,10.192969 11.944819,3.9210869 11.876671,2.9099709 11.898893,1.8966326 12.02482,0.01069743 13.455938,0.27514317 M 7.2440556,2.1492264 C 8.4448022,1.1210732 9.0477681,2.863304 9.1848058,3.7329378 9.3218435,4.5870161 10.905555,10.988529 9.2848063,10.882602 8.0351706,10.80038 7.15887,5.3714644 7.0462768,4.5122009 6.927017,3.8477532 6.6425712,2.6640437 7.2440556,2.1492264 M 2.925516,7.4788821 C 2.7314409,6.572211 2.9699606,5.5344281 3.8825577,5.6596139 4.6662652,5.7685033 4.9677482,6.8803606 5.1047859,7.6685126 5.2188605,8.3203677 6.9055354,13.04928 6.0551609,12.887797 5.255157,12.735945 3.1255169,8.4211089 2.9247752,7.4788821 M 15.835209,21.715989 c -0.838523,0.46815 -1.935565,0.751114 -2.575568,0.809633 -2.531865,0.231112 -5.0852105,-0.401483 -6.8585525,-2.086677 -1.7422307,-1.795564 -2.1214918,-4.207428 -0.5733361,-6.217808 1.437044,-1.866676 3.7889074,-2.681494 6.2392896,-2.800013 1.358525,-0.06667 5.957066,0.416298 4.632615,2.660753 -1.07482,1.82075 -4.096316,0.03704 -5.810398,0.620744 -1.9274172,0.6563 -2.4651977,3.235571 -0.623707,4.294836 1.344451,0.775559 3.248164,0.693337 4.495577,-0.142223 1.807417,-1.210376 5.131877,-6.748922 7.348184,-4.155576 0.448151,0.523706 -4.612615,6.086696 -6.274104,7.016331"
     style="stroke-width:0.740744" />
  <path
     fill="#4d4d4d"
     d="m 18.178924,13.973729 c -0.35852,-0.319261 -0.525188,-0.860745 -0.807412,-1.267414 -0.455557,-0.763707 -0.870374,-1.560748 -1.351117,-2.304456 -2.730384,-0.04 -5.469657,-0.0059 -8.2030033,-0.01704 -0.359261,0.31852 -0.5259285,0.860004 -0.8081521,1.266673 -1.1333388,1.955565 -2.2614925,3.92076 -3.3229792,5.911881 1.2792655,2.399271 2.65705,4.754097 4.0163159,7.111146 0.4570393,0.148149 1.0074124,0.02519 1.5014889,0.06593 2.2711218,-0.01185 4.5481708,0.02296 6.8155888,-0.01778 0.733337,-1.156302 1.36297,-2.393345 2.094825,-3.551128 0.877782,-0.06963 1.788157,0.05185 2.654828,-0.06074 0.100741,-0.942968 0.01481,-1.922973 0.0437,-2.880015 v -4.108909 c -0.267409,-0.305927 -0.827412,-0.08 -1.221488,-0.14963 H 18.17892 Z"
     style="stroke-width:0.740744" />
  <path
     fill="#e2e2e2"
     d="m 5.5566399,14.167804 -1.9051945,3.396313 c 0.600003,1.231857 1.4096366,2.352604 2.0963066,3.539276 2.848162,0.106667 5.700769,0.02445 8.550412,0.04963 1.5726,-0.01037 3.150386,0.02074 4.719282,-0.01482 l 1.260007,-0.319261 c 0.222223,-0.7163 0.644447,-1.397044 0.534817,-2.171862 0.01778,-1.557045 0.0067,-3.112608 -0.148149,-4.663727 -4.174094,-0.02 -8.388189,-0.0096 -12.5778391,-0.0052 z"
     style="stroke-width:0.740744" />
  <path
     fill="none"
     d="M 20.66338,13.973729 H 5.7470112 c -0.359261,0.311112 -0.5088913,0.837781 -0.788152,1.231857 L 3.6358898,17.49819 c 0.1562971,0.568892 0.5844473,1.06445 0.8496338,1.604453 l 1.1459315,1.984454 c 0.5718547,0.150371 1.217043,0.02593 1.8177867,0.06667 4.4244662,-0.0074 8.8518952,0.01482 13.2741392,-0.01185 0.200001,-0.311113 0.03704,-0.773337 0.08963,-1.14445 -0.01333,-1.982232 0.02667,-3.971131 -0.01926,-5.948918 l -0.05482,-0.05481 z"
     style="stroke-width:0.740744" />
  <path
     fill="#e1e1e1"
     d="M 6.0833092,17.201152 3.8536686,18.010045 C 3.4795927,17.650043 3.74552,17.2493 3.9818174,16.897447 l 0.6622255,-1.146673 z"
     style="stroke-width:0.740744" />
  <path
     fill="#c8c8c8"
     d="m 20.813011,17.636709 v 1.703713 l -1.469637,-1.493341 z"
     style="stroke-width:0.740744" />
  <path
     fill="#c2c2c2"
     d="m 19.343374,17.847081 1.468896,1.494081 c -0.02963,0.585188 0.05926,1.200006 -0.04222,1.768157 -0.582966,0.101482 -1.212599,0.01482 -1.813343,0.04444 z"
     style="stroke-width:0.740744" />
  <path
     fill="#c7c7c7"
     d="m 18.956705,21.153023 h -2.056306 l -0.622225,-1.500007 3.064459,-1.805935 z"
     style="stroke-width:0.740744" />
  <path
     fill="#cecece"
     d="m 20.813011,16.058924 v 1.577785 l -1.469637,0.210372 z"
     style="stroke-width:0.740744" />
  <path
     fill="#d3d3d3"
     d="m 20.813011,14.122618 c -0.02741,0.65704 0.05333,1.351859 -0.04,1.985195 l -1.429637,1.739268 -1.107413,-3.874093 c 0.833338,0.01407 1.674082,-0.02667 2.502235,0.02 l 0.05482,0.05481 z"
     style="stroke-width:0.740744" />
  <path
     fill="#c6c6c6"
     d="m 15.817431,21.153023 -0.281483,-0.402965 0.742226,-1.096302 0.622225,1.499267 z"
     style="stroke-width:0.740744" />
  <path
     fill="#d5d5d5"
     d="m 15.277428,16.127813 2.138529,-2.154084 h 0.820004 l 1.107413,3.873352 z"
     style="stroke-width:0.740744" />
  <path
     fill="#d0d0d0"
     d="m 15.277428,16.127813 1.000746,3.525943 3.065941,-1.807416 z"
     style="stroke-width:0.740744" />
  <path
     fill="#bfbfbf"
     d="m 15.522615,21.153023 0.01333,-0.402965 0.281483,0.402965 z"
     style="stroke-width:0.740744" />
  <path
     fill="#d9d9d9"
     d="M 15.277428,16.127813 14.8915,14.201137 15.71669,13.973729 h 1.699267 z"
     style="stroke-width:0.740744" />
  <path
     fill="#d4d4d4"
     d="m 15.277428,16.127813 -4.937061,1.139265 5.195581,3.48298 -0.259261,-4.622245 z"
     style="stroke-width:0.740744" />
  <path
     fill="#d0d0d0"
     d="m 15.277428,16.127813 0.25852,4.622245 0.742226,-1.096302 z"
     style="stroke-width:0.740744" />
  <path
     fill="#d9d9d9"
     d="m 14.8915,14.201137 -4.548911,3.0652 4.936321,-1.139265 z"
     style="stroke-width:0.740744" />
  <path
     fill="#d8d8d8"
     d="M 8.2025788,21.153023 H 6.9840543 l -0.9007451,-3.951871 4.2592798,0.06518 z"
     style="stroke-width:0.740744" />
  <path
     fill="#e2e2e2"
     d="M 8.1492452,13.973729 6.0833092,17.201152 5.5573807,14.167804 C 5.7529372,13.79595 6.2855324,14.046322 6.628497,13.972988 h 1.5207482 z"
     style="stroke-width:0.740744" />
  <path
     fill="#d8d8d8"
     d="M 6.9840543,21.153764 C 6.5381262,21.112282 6.0455312,21.23969 5.6307144,21.084874 L 3.8544094,18.010785 6.0833092,17.201152 Z"
     style="stroke-width:0.740744" />
  <path
     fill="#e4e4e4"
     d="M 5.5566399,14.167804 6.0833092,17.201152 4.6440429,15.750034 Z"
     style="stroke-width:0.740744" />
  <path
     fill="#dedede"
     d="M 11.172964,13.973729 H 8.992953 l 1.349636,3.292608 4.548171,-3.0652 -1.370377,-0.227408 h -0.923709 z m -5.0896548,3.227423 4.2592798,0.06518 -1.349636,-3.292608 H 8.1485044 Z"
     style="stroke-width:0.740744" />
  <path
     fill="#c5c5c5"
     d="m 15.339651,21.153023 h 0.182964 l 0.01333,-0.402965 -0.990375,0.402965 z"
     style="stroke-width:0.740744" />
  <path
     fill="#d0d0d0"
     d="m 11.278149,21.153023 h 3.266683 l 0.990375,-0.402965 -5.193359,-3.483721 z"
     style="stroke-width:0.740744" />
  <path
     fill="#d1d1d1"
     d="m 11.172964,21.153023 h 0.105185 l -0.93556,-3.886686 -2.1400102,3.886686 H 8.430728 Z"
     style="stroke-width:0.740744" />
  <path
     fill="#dddddd"
     d="m 14.8915,14.201137 0.82519,-0.227408 h -0.811116 z"
     style="stroke-width:0.740744" />
  <path
     fill="#e3e3e3"
     d="m 14.8915,14.201137 -0.126667,-0.227408 h -1.24445 z"
     style="stroke-width:0.740744" />
  <path
     fill="#e2e2e2"
     d="m 14.8915,14.201137 0.01407,-0.227408 h -0.140741 z"
     style="stroke-width:0.740744" />
  <path
     fill="#00b8e3"
     d="M 11.15963,14.035951 C 10.490738,15.214475 9.7818458,16.378185 9.1373982,17.56708 H 7.7396136 L 10.49222,12.796686 c 0.241482,0.385187 0.51778,0.792596 0.677781,1.211858 z"
     style="stroke-width:0.740744" />
  <path
     fill="#33c6e9"
     d="m 11.157408,21.218949 c -0.225927,0.369632 -0.415558,0.767411 -0.663707,1.119265 L 7.7366506,17.56782 h 1.4014883 c 0.6422254,1.211858 1.3911181,2.381493 2.0348251,3.59187 l -0.0037,0.03037 -0.01185,0.02963 z"
     style="stroke-width:0.740744" />
  <path
     fill="#008aaa"
     d="M 10.49222,12.796686 C 9.3440658,14.785584 8.1959121,16.774483 7.0492398,18.763382 6.8484981,18.341898 6.4944223,17.950785 6.3907181,17.509301 l 2.694828,-4.666689 c 0.4266687,-0.124445 0.9533379,-0.0437 1.4066739,-0.04593 z"
     style="stroke-width:0.740744" />
  <path
     fill="#00b8e3"
     d="M 10.49222,22.338214 C 10.030736,22.337473 9.5211037,22.419696 9.0833238,22.293769 8.404802,21.116726 7.7233172,19.941906 7.0462768,18.764863 L 7.7366506,17.56782 Z"
     style="stroke-width:0.740744" />
  <path
     fill="#008aaa"
     d="m 16.028543,17.566339 -2.754828,4.771875 c -0.234076,-0.395558 -0.548151,-0.799263 -0.668892,-1.236302 0.668151,-1.180006 1.376303,-2.344456 2.02075,-3.534832 h 1.40297 z"
     style="stroke-width:0.740744" />
  <path
     fill="#00b8e3"
     d="m 17.392253,17.566339 c -0.8763,1.589637 -1.814823,3.153349 -2.714087,4.731875 -0.440002,0.114074 -0.943708,0.04444 -1.403711,0.04 l 3.444462,-5.966696 c 0.220001,0.400002 0.476298,0.785189 0.673336,1.195562 z m -1.36371,0 h -1.400007 c -0.645929,-1.187413 -1.350377,-2.351123 -2.019269,-3.529647 0.112593,-0.440002 0.433335,-0.842226 0.665188,-1.239265 l 2.754088,4.769653 z"
     style="stroke-width:0.740744" />
  <path
     fill="#33c6e9"
     d="m 16.719657,16.370777 -0.690373,1.194821 -2.755569,-4.768912 c 0.459261,-0.0015 0.964449,-0.0763 1.40371,0.04 l 2.042232,3.533351 z"
     style="stroke-width:0.740744" />
</svg>
