<?xml version="1.0" encoding="UTF-8" standalone="no"?>
<!-- Created with Inkscape (http://www.inkscape.org/) -->

<svg
   width="33.681mm"
   height="33.681mm"
   viewBox="0 0 33.681 33.681"
   version="1.1"
   id="svg976"
   inkscape:version="1.2.2 (732a01da63, 2022-12-09)"
   sodipodi:docname="icon.svg"
   xmlns:inkscape="http://www.inkscape.org/namespaces/inkscape"
   xmlns:sodipodi="http://sodipodi.sourceforge.net/DTD/sodipodi-0.dtd"
   xmlns="http://www.w3.org/2000/svg"
   xmlns:svg="http://www.w3.org/2000/svg">
  <sodipodi:namedview
     id="namedview978"
     pagecolor="#ffffff"
     bordercolor="#000000"
     borderopacity="0.25"
     inkscape:showpageshadow="2"
     inkscape:pageopacity="0.0"
     inkscape:pagecheckerboard="0"
     inkscape:deskcolor="#d1d1d1"
     inkscape:document-units="mm"
     showgrid="false"
     inkscape:zoom="3.3638608"
     inkscape:cx="92.156012"
     inkscape:cy="101.37161"
     inkscape:window-width="1680"
     inkscape:window-height="979"
     inkscape:window-x="1912"
     inkscape:window-y="-8"
     inkscape:window-maximized="1"
     inkscape:current-layer="layer1" />
  <defs
     id="defs973">
    <mask
       id="mask-4-8"
       fill="#ffffff">
      <path
         d="m 46.347887,13.561 c 0.3,5.183 -1.334,37.291 5.713,38.287 v 0 c 6.739,0.954 6.279,-31.383 6.282,-35.777 v 0 c 0.007,-3.946 1.544,-14.899 -3.789,-15.93 v 0 C 54.061887,0.045 53.599887,0 53.164887,0 v 0 c -6.02,0.001 -6.669,8.722 -6.817,13.561 z m -23.688,-4.11 c -3.109,2.613 -1.705,8.687 -1.125,12.093 v 0 c 0.543,4.41 4.776,32.25 11.172,32.729 v 0 c 8.298,0.618 0.482,-32.236 -0.18,-36.617 v 0 c -0.522,-3.505 -2.492,-9.785 -6.319,-9.785 v 0 c -1.042,10e-4 -2.222,0.466 -3.548,1.58 z m 52.897,3.328 c -3.673,1.437 -4.343,7.391 -4.91,10.672 v 0 c -0.92,4.183 -8.215,31.195 -2.538,33.571 v 0 c 7.36,3.072 12.994,-29.592 13.808,-33.782 v 0 c 0.712,-3.706 0.907,-11.014 -3.825,-11.014 v 0 c -0.724,0 -1.565,0.172 -2.535,0.553 z M 0.29288677,36.55 C 1.2788868,41.383 11.986887,63.579 16.075887,64.393 v 0 c 4.349,0.869 -4.075,-23.43 -4.628,-26.773 v 0 c -0.664,-4.042 -2.1560002,-9.749 -6.1650002,-10.341 v 0 c -0.276,-0.04 -0.539,-0.059 -0.791,-0.059 v 0 c -4.01600003,0 -5.09100003,4.952 -4.19900003,9.33 z M 46.930887,57.161 c -12.554,0.492 -24.638,4.557 -32.084,14.052 v 0 c -8.0190002,10.227 -6.1880002,22.592 2.651,31.866 v 0 c 9.007,8.716 22.051,12.071 35.031,11.003 v 0 c 3.28,-0.269 8.911,-1.672 13.224,-4.028 v 0 c 8.553,-4.683 34.728003,-32.942 32.457,-35.644 v 0 c -11.235,-13.382 -28.512,14.83 -37.827,20.943 v 0 c -6.424,4.221 -16.176,4.556 -23.026,0.525 v 0 c -9.382,-5.513 -6.511,-18.696 3.391,-21.967 v 0 c 3.49,-1.154 8.016,-0.392 12.555,0.368 v 0 c 6.911,1.159 13.856,2.318 17.228,-3.282 v 0 c 6.576,-10.916 -14.583,-13.855 -22.562,-13.855 v 0 c -0.376,0 -0.724,0.007 -1.038,0.019 z"
         id="use41-1" />
    </mask>
  </defs>
  <g
     inkscape:label="Livello 1"
     inkscape:groupmode="layer"
     id="layer1"
     transform="translate(-51.171457,-149.7427)">
    <g
       id="g1693"
       transform="translate(3.8297536,1.1116698e-4)">
      <polygon
         fill="#fefefe"
         mask="url(#mask-4-8)"
         points="-2.2051132,116.699 102.02889,116.699 102.02889,-2.828 -2.2051132,-2.828 "
         style="fill:#000000;fill-opacity:1;fill-rule:evenodd;stroke:none;stroke-width:1"
         transform="matrix(0.26458333,0,0,0.26458333,51.171457,149.7427)"
         id="polygon1107" />
      <g
         id="g1408"
         transform="matrix(0.04660434,0,0,0.04660434,51.15131,161.80418)">
        <path
           class="cls-15"
           d="m 438.48,152 c -1.36647,0.0146 -2.635,-0.70753 -3.32,-1.89 L 377.39,49.94 C 376.67452,48.754034 375.38499,48.035096 374,48.05 H 138.33 c -1.37003,-0.01824 -2.64324,0.704388 -3.33,1.89 L 75,153.89 19.17,254.09 c -0.670238,1.18514 -0.670238,2.63486 0,3.82 L 75,358 135,462 c 0.685,1.18247 1.95353,1.90461 3.32,1.89 H 374 c 1.37433,0.004 2.64999,-0.71328 3.36,-1.89 L 435.2,361.9 c 0.685,-1.18247 1.95353,-1.90461 3.32,-1.89 h 71.93 c 2.38587,0 4.32,-1.93413 4.32,-4.32 V 156.32 c 0,-2.38587 -1.93413,-4.32 -4.32,-4.32 h -72 z"
           id="path38"
           sodipodi:nodetypes="ccccccccccccccccsssscc"
           style="fill:#4d4d4d" />
        <path
           style="fill:#e2e2e2;fill-opacity:1;stroke:none;stroke-width:1px;stroke-linecap:butt;stroke-linejoin:miter;stroke-opacity:1"
           d="M 72.85,157.64 17.658505,256.00902 23.53,268.94 78.375,358.53222 114.19,360 401.46,359.98 H 461 L 499.26418,350.30026 514.76,307.49 514.77,258.13 V 212.41 L 510.46,152 h -71.98 l -22.11,0.01 H 367.16 147.94 l -75.09,5.63"
           id="path27674" />
        <path
           class="cls-1"
           d="M 510.46,152 H 78.34 A 3.91,3.91 0 0 0 75,153.89 c 0,0 0,0.07 0,0.07 l -2.14,3.69 -26.45,45.83 -29.23,50.63 a 3.8,3.8 0 0 0 0,3.83 l 6.35,11 51.47,89.12 a 3.84,3.84 0 0 0 3.34,1.94 h 432.18 a 4.27,4.27 0 0 0 4.24,-4.28 V 156.34 a 4.32,4.32 0 0 0 -4.3,-4.34 z"
           id="path40"
           style="fill:none" />
        <path
           class="cls-16"
           d="m 88.1,245.5 -64.57,23.44 -6.35,-11 a 3.8,3.8 0 0 1 0,-3.83 l 29.23,-50.63 z"
           id="path42"
           style="fill:#e1e1e1" />
        <polygon
           class="cls-17"
           points="472.21,264.21 514.77,258.13 514.77,307.49 "
           id="polygon44"
           style="fill:#c8c8c8" />
        <path
           class="cls-18"
           d="m 472.21,264.21 42.55,43.28 v 48.21 a 4.27,4.27 0 0 1 -4.24,4.28 H 461 Z"
           id="path46"
           style="fill:#c2c2c2" />
        <polygon
           class="cls-19"
           points="383.42,316.53 472.21,264.21 461,359.98 401.46,359.98 "
           id="polygon48"
           style="fill:#c7c7c7" />
        <polygon
           class="cls-20"
           points="472.21,264.21 514.77,212.41 514.77,258.13 "
           id="polygon50"
           style="fill:#cecece" />
        <path
           class="cls-21"
           d="m 514.77,156.33 v 56.08 L 472.22,264.21 440.12,152 h 70.33 a 4.32,4.32 0 0 1 4.32,4.33 z"
           id="path52"
           style="fill:#d3d3d3" />
        <polygon
           class="cls-22"
           points="383.42,316.53 401.46,359.98 370.06,359.98 361.92,348.31 "
           id="polygon54"
           style="fill:#c6c6c6" />
        <polygon
           class="cls-23"
           points="440.12,152.01 472.21,264.21 354.42,214.42 416.37,152.01 "
           id="polygon56"
           style="fill:#d5d5d5" />
        <path
           class="cls-24"
           d="m 354.42,214.42 29,102.11 88.8,-52.32 z"
           id="path58"
           style="fill:#d0d0d0" />
        <polygon
           class="cls-25"
           points="370.06,359.98 361.54,359.98 361.92,348.31 "
           id="polygon60"
           style="fill:#bfbfbf" />
        <polygon
           class="cls-26"
           points="367.16,152.01 416.37,152.01 354.42,214.42 343.24,158.6 "
           id="polygon62"
           style="fill:#d9d9d9" />
        <path
           class="cls-27"
           d="m 354.42,214.42 -143,33 150.5,100.89 z"
           id="path64"
           style="fill:#d4d4d4" />
        <path
           class="cls-24"
           d="m 354.42,214.42 7.49,133.9 21.5,-31.78 z"
           id="path66"
           style="fill:#d0d0d0" />
        <path
           class="cls-26"
           d="m 343.24,158.6 -131.77,88.79 143,-33 z"
           id="path68"
           style="fill:#d9d9d9" />
        <polygon
           class="cls-28"
           points="88.1,245.5 211.47,247.39 149.5,359.98 114.19,359.98 "
           id="polygon70"
           style="fill:#d8d8d8" />
        <path
           class="cls-29"
           d="M 147.94,152 88.1,245.5 72.85,157.64 75,153.94 c 0,0 0,-0.07 0,-0.07 A 3.91,3.91 0 0 1 78.33,152 Z"
           id="path72"
           style="fill:#e2e2e2" />
        <path
           class="cls-28"
           d="M 114.19,360 H 78.33 A 3.84,3.84 0 0 1 75,358 L 23.53,268.94 88.1,245.5 Z"
           id="path74"
           style="fill:#d8d8d8" />
        <polygon
           class="cls-30"
           points="46.41,203.47 72.85,157.64 88.1,245.5 "
           id="polygon76"
           style="fill:#e4e4e4" />
        <polygon
           class="cls-31"
           points="211.47,247.39 343.24,158.6 303.52,152.01 276.77,152.01 235.53,152.01 172.39,152.01 "
           id="polygon78"
           style="fill:#dedede" />
        <polygon
           class="cls-31"
           points="88.1,245.5 211.47,247.39 172.39,152.01 156.09,152.01 147.94,152.01 "
           id="polygon80"
           style="fill:#dedede" />
        <polygon
           class="cls-32"
           points="361.92,348.31 333.23,359.98 356.22,359.98 361.54,359.98 "
           id="polygon82"
           style="fill:#c5c5c5" />
        <polygon
           class="cls-24"
           points="238.57,359.98 276.77,359.98 333.23,359.98 361.92,348.31 211.47,247.39 "
           id="polygon84"
           style="fill:#d0d0d0" />
        <polygon
           class="cls-33"
           points="235.53,359.98 238.57,359.98 211.47,247.39 149.5,359.98 156.09,359.98 "
           id="polygon86"
           style="fill:#d1d1d1" />
        <polygon
           class="cls-34"
           points="356.22,152.01 343.65,152.01 343.24,158.6 367.16,152.01 "
           id="polygon88"
           style="fill:#dddddd" />
        <polygon
           class="cls-35"
           points="303.52,152.01 343.24,158.6 339.58,152.01 "
           id="polygon90"
           style="fill:#e3e3e3" />
        <polygon
           class="cls-29"
           points="339.58,152.01 343.24,158.6 343.65,152.01 "
           id="polygon92"
           style="fill:#e2e2e2" />
        <path
           class="cls-36"
           d="M 235.15,153.81 177,254.46 a 3.38,3.38 0 0 0 -0.42,1.64 h -40.51 l 79.74,-138.18 a 3.14,3.14 0 0 1 1.19,1.15 l 0.11,0.11 18.08,31.41 a 3.49,3.49 0 0 1 -0.04,3.22 z"
           id="path94"
           style="fill:#00b8e3" />
        <path
           class="cls-37"
           d="m 235.08,361.89 -18,31.27 a 3.51,3.51 0 0 1 -1.22,1.15 L 136,256.14 v 0 h 40.6 a 3.09,3.09 0 0 0 0.38,1.57 0.37,0.37 0 0 0 0.07,0.17 l 58,100.58 a 3.41,3.41 0 0 1 0.03,3.43 z"
           id="path96"
           style="fill:#33c6e9" />
        <path
           class="cls-38"
           d="M 215.81,117.92 136.07,256.1 v 0 0 l -20,34.66 -19.1,-33.12 a 3.09,3.09 0 0 1 -0.38,-1.57 3.38,3.38 0 0 1 0.42,-1.64 L 116.31,221 175.06,119.26 a 3.4,3.4 0 0 1 3,-1.75 h 36.04 a 3.58,3.58 0 0 1 1.71,0.41 z"
           id="path98"
           style="fill:#008aaa" />
        <path
           class="cls-36"
           d="m 215.81,394.31 a 3.58,3.58 0 0 1 -1.71,0.45 H 178 a 3.4,3.4 0 0 1 -3,-1.75 l -53.72,-93 -5.28,-9.22 20,-34.66 z"
           id="path100"
           style="fill:#00b8e3" />
        <path
           class="cls-38"
           d="m 376.19,256.1 -79.8,138.21 a 3.73,3.73 0 0 1 -1.19,-1.15 l -0.07,-0.1 L 277,361.72 a 3.49,3.49 0 0 1 0,-3.22 l 58.06,-100.65 a 3.38,3.38 0 0 0 0.49,-1.75 h 40.57 z"
           id="path102"
           style="fill:#008aaa" />
        <path
           class="cls-36"
           d="m 415.68,256.1 a 3.38,3.38 0 0 1 -0.49,1.75 l -78.13,135.31 a 3.42,3.42 0 0 1 -2.9,1.61 h -36 a 3.72,3.72 0 0 1 -1.75,-0.45 l 79.78,-138.22 20,-34.62 19,32.91 a 3.35,3.35 0 0 1 0.49,1.71 z"
           id="path104"
           style="fill:#00b8e3" />
        <path
           class="cls-36"
           d="m 376.19,256.1 h -40.56 a 3.35,3.35 0 0 0 -0.49,-1.71 l -58,-100.55 a 3.41,3.41 0 0 1 0,-3.46 l 18.08,-31.3 a 3.73,3.73 0 0 1 1.19,-1.15 z"
           id="path106"
           style="fill:#00b8e3" />
        <path
           class="cls-37"
           d="m 396.2,221.44 v 0 l -20,34.62 -79.81,-138.14 a 3.72,3.72 0 0 1 1.75,-0.45 h 36 a 3.42,3.42 0 0 1 2.9,1.61 z"
           id="path108"
           style="fill:#33c6e9" />
      </g>
    </g>
  </g>
</svg>
